# xmcd CD database file generated by OrangeCD 6.0
#
# Track frame offsets:
#	150
#	38518
#	62065
#	80958
#	106588
#	127300
#	191250
#
# Disc length: 3030 seconds
#
# Revision: 2
# Processed by: cddbd v1.5.2PL0 Copyright (c) Steve Scherf et al.
# Submitted via: OrangeCD 6.0
#
DISCID=580bd407
DTITLE=Stevie Ray Vaughan - Live in Montreux
DYEAR=1900
DGENRE=Blues
TTITLE0=Ain´t gone´n´give up on love
TTITLE1=Sweet little thing
TTITLE2=Mary had a little lamb
TTITLE3=Cold Shot
TTITLE4=Don´t stop by the creek, son
TTITLE5=Tin Pan Alley
TTITLE6=Look at little sister
EXTD=
EXTT0=
EXTT1=
EXTT2=
EXTT3=
EXTT4=
EXTT5=
EXTT6=
PLAYORDER=
